<svg height="60" viewBox="0 0 6.0006 6.0006" width="60" xmlns="http://www.w3.org/2000/svg" xmlns:xlink="http://www.w3.org/1999/xlink"><filter id="a" color-interpolation-filters="sRGB" height="1.525759" width="1.586342" x="-.293171" y="-.262879"><feGaussianBlur stdDeviation="7.6193906"/></filter><linearGradient id="b" gradientTransform="matrix(1.9077256 6.2117161 -7.4621257 2.2917481 2334.5861 561.04082)" gradientUnits="userSpaceOnUse" x1="25.220379" x2="94.567612" y1="61.92226" y2="61.92226"><stop offset="0" stop-color="#4d4d4d"/><stop offset="1" stop-color="#fff"/></linearGradient><clipPath id="c"><path d="m48 32c-19.882251 0-36 16.117749-36 36s16.117749 36 36 36 36-16.117749 36-36-16.117749-36-36-36zm0 24c6.627417 0 12 5.372583 12 12s-5.372583 12-12 12-12-5.372583-12-12 5.372583-12 12-12z"/></clipPath><g transform="matrix(.07701344 .02365216 -.02365216 .07701344 .417541 -1.780638)"><path d="m48 11.302663c-19.882251 0-36 16.117749-36 36s16.117749 36 36 36 36.000002-16.117749 36.000002-36-16.117751-36-36.000002-36zm0 24c6.627417 0 12 5.372583 12 12s-5.372583 12-12 12-12-5.372583-12-12 5.372583-12 12-12z" fill="#69f"/><path d="m48 35.302663c-6.627417 0-12 5.372583-12 12s5.372583 12 12 12 12-5.372583 12-12-5.372583-12-12-12zm0 7c2.761424 0 5 2.238576 5 5s-2.238576 5-5 5-5-2.238576-5-5 2.238576-5 5-5z" fill="#fff" opacity=".3"/><path d="m48.000001 52.802663a5.4999999 5.5000001 0 1 1 0-11 5.4999999 5.5000001 0 1 1 0 11z" fill="none" opacity=".6" stroke="url(#b)" stroke-linecap="round"/><path clip-path="url(#c)" d="m57.3125 33.21875-9.3125 34.78125 31.1875-18c-4.773897-8.268632-12.65254-14.310099-21.875-16.78125zm-9.3125 34.78125-31.1875 18c4.773897 8.268632 12.65254 14.3101 21.875 16.78125z" fill="#cecece" filter="url(#a)" opacity=".8" transform="translate(-.000001 -20.697337)"/><path d="m48 32.802663c-8.008129 0-14.5 6.491871-14.5 14.5s6.491871 14.5 14.5 14.5 14.5-6.491871 14.5-14.5-6.491871-14.5-14.5-14.5zm0 2.5c6.627417 0 12 5.372583 12 12s-5.372583 12-12 12-12-5.372583-12-12 5.372583-12 12-12z" opacity=".2"/></g></svg>