<svg height="256" viewBox="0 0 256 256" width="256" xmlns="http://www.w3.org/2000/svg"><path d="m149.929 95.460191v28.295479h7.07388v14.14775h-21.22162v-56.590981h14.14774l-21.22162-28.29549-21.22161 28.29549h14.14775v56.590981h-21.22162v-14.64292c4.9517-2.61733 8.48864-7.63978 8.48864-13.65257 0-8.63012-7.00313-15.562519-15.562515-15.562519-8.630127 0-15.562518 6.932399-15.562518 15.562519 0 6.01279 3.536937 11.03524 8.488643 13.65257v14.64292a14.147745 14.147745 0 0 0 14.14775 14.14775h21.22162v21.57531c-5.02246 2.54659-8.48866 7.78126-8.48866 13.79405a15.56252 15.56252 0 0 0 15.56252 15.56252 15.56252 15.56252 0 0 0 15.56252-15.56252c0-6.01279-3.4662-11.24746-8.48864-13.79405v-21.57531h21.22162a14.147745 14.147745 0 0 0 14.14774-14.14775v-14.14775h7.07387v-28.295479z" fill="#fff"/><path d="m16 215.11111v-174.22222c0-13.745755 11.14314-24.888891 24.88889-24.88889h174.22222c13.74575 0 24.88889 11.143136 24.88889 24.88889v174.22222c0 13.74575-11.14314 24.88889-24.88889 24.88889h-174.22222c-13.74575 0-24.88889-11.14314-24.88889-24.88889m24.88889 0h174.22222v-174.22222h-174.22222z" fill="#fff"/></svg>