<svg height="256" viewBox="0 0 256 256" width="256" xmlns="http://www.w3.org/2000/svg"><path d="m38.400391 38.400391c-12.432 0-22.400391 9.96839-22.400391 22.40039v134.398439a22.4 22.4 0 0 0 22.400391 22.40039h179.199219a22.4 22.4 0 0 0 22.40039-22.40039v-112.000001c0-12.432-10.08039-22.398438-22.40039-22.398438h-89.59961l-22.40039-22.40039zm73.228519 37.933593a47.294188 47.294188 0 0 1 47.29492 47.294926c0 11.71441-4.29381 22.48267-11.35156 30.77734l1.96484 1.96484h5.74805l36.38086 36.38086-10.91407 10.91407-36.38086-36.38086v-5.74805l-1.96484-1.96484c-8.29467 7.05775-19.06292 11.35156-30.77734 11.35156a47.294188 47.294188 0 0 1 -47.294926-47.29492 47.294188 47.294188 0 0 1 47.294926-47.294926zm0 14.552735c-18.190069 0-32.742191 14.552121-32.742191 32.742191s14.552122 32.74218 32.742191 32.74218c18.19008 0 32.74218-14.55211 32.74218-32.74218s-14.5521-32.742191-32.74218-32.742191z" fill="#fff"/></svg>