<svg height="256" viewBox="0 0 256 256" width="256" xmlns="http://www.w3.org/2000/svg"><path d="m240 21.89474v147.36844a41.263158 41.263158 0 0 1 -41.26312 41.26312 41.263158 41.263158 0 0 1 -41.26324-41.26312 41.263158 41.263158 0 0 1 41.26324-41.26324c6.36624 0 12.37896 1.4148 17.68416 4.00844v-69.20416l-117.894678 25.11156v104.92636a41.263158 41.263158 0 0 1 -41.26324 41.26312 41.263158 41.263158 0 0 1 -41.26312-41.26312 41.263158 41.263158 0 0 1 41.26312-41.26324c6.36636 0 12.37896 1.4148 17.68428 4.00844v-98.324161z" fill="#fff"/></svg>