<svg height="80" viewBox="0 0 52.916665 21.166667" width="200" xmlns="http://www.w3.org/2000/svg" xmlns:xlink="http://www.w3.org/1999/xlink"><filter id="a" color-interpolation-filters="sRGB" height="1.065388" width="1.032255" x="-.016127" y="-.032694"><feGaussianBlur stdDeviation=".25231486"/></filter><g transform="translate(0 -275.83332)"><rect fill="#74ffd5" height="19.843752" rx="1.322917" width="38.73946" x="13.515748" y="276.49478"/><rect fill="none" height="19.84375" rx="1.311837" ry="1.295217" stroke="#13243c" stroke-width="1.322917" width="51.59375" x=".661458" y="276.49478"/><path d="m13.515748 276.49478 6.455553 10.00339-6.455553 9.87364z" fill="#13243c"/><path d="m.661458 276.49478h13.383457v19.84375h-13.383457z" fill="#13243c"/><path d="m14.045047 277.15558v.15917l5.926254 9.18342-5.926254 9.06404v.11524h36.89749c.37625 0 .650608-.27711.650608-.6351v-17.25166c0-.35798-.274358-.63511-.650608-.63511z" fill="none" filter="url(#a)" opacity=".428" stroke="#13243c" stroke-width="1.068"/><g stroke-width=".264583"><path d="m31.841174 284.94934h-1.220253l-.48507-1.26194h-2.220708l-.458542 1.26194h-1.189936l2.163864-5.55556h1.186146zm-2.065335-2.19797-.7655-2.06155-.750342 2.06155z"/><path d="m32.424773 284.94934v-5.55556h1.678795l1.008035 3.7896.996666-3.7896h1.682584v5.55556h-1.042141v-4.3732l-1.102775 4.3732h-1.080037l-1.098986-4.3732v4.3732z"/><path d="m38.628356 283.1417 1.091406-.10611q.09853.54949.397909.80719.303168.25769.814765.25769.541913 0 .814765-.22738.276641-.23116.276641-.53812 0-.19706-.117478-.33349-.113688-.14021-.401698-.24253-.197059-.0682-.898136-.24254-.901926-.22358-1.265728-.54949-.511597-.45854-.511597-1.11793 0-.42444.238745-.79203.242535-.37138.693498-.56465.454753-.19327 1.095196-.19327 1.045931 0 1.572686.45854.530545.45854.557072 1.22404l-1.121723.0493q-.072-.42823-.310748-.61392-.234955-.18948-.708656-.18948-.488859 0-.7655.20085-.178112.12885-.178112.34486 0 .19706.166743.33727.212218.17811 1.030772.37138.818555.19327 1.208885.4017.394118.20464.613916.56465.223586.35622.223586.88298 0 .47749-.265272.89435-.265272.41685-.750342.62149-.485069.20085-1.208884.20085-1.05351 0-1.618161-.48507-.564651-.48886-.67455-1.4211z"/><path d="m20.176001 293.79904v-5.05051h1.526177l.916396 3.4451.90606-3.4451h1.529622v5.05051h-.947401v-3.97564l-1.002523 3.97564h-.981852l-.999078-3.97564v3.97564z"/><path d="m25.843183 291.91802q0-.48231.237712-.93362.237711-.45131.671793-.68902.437527-.23771.974962-.23771.830268 0 1.360813.54088.530545.53743.530545 1.36081 0 .83027-.537435 1.37804-.53399.54432-1.347033.54432-.502984 0-.961181-.22737-.454753-.22738-.692464-.66491-.237712-.44097-.237712-1.07142zm.992187.0517q0 .54432.258383.83371.258382.28939.637342.28939.378961 0 .633898-.28939.258382-.28939.258382-.8406 0-.53744-.258382-.82683-.254937-.28938-.633898-.28938-.37896 0-.637342.28938-.258383.28939-.258383.83372z"/><path d="m31.386342 293.79904-1.474501-3.65869h1.016303l.689019 1.86724.199816.62356q.07924-.23771.09991-.3135.04823-.15503.103353-.31006l.695909-1.86724h.995632l-1.45383 3.65869z"/><path d="m34.307782 289.64426v-.89573h.968072v.89573zm0 4.15478v-3.65869h.968072v3.65869z"/><path d="m38.38333 292.6346.964627.16192q-.186035.53054-.589112.8096-.399631.2756-1.002522.2756-.954292 0-1.41249-.62356-.361735-.49954-.361735-1.2609 0-.90951.475424-1.42283.475423-.51676 1.202338-.51676.816488 0 1.288466.54088.471978.53743.451307 1.6502h-2.425347q.01033.43064.234266.67179.223932.23771.558106.23771.227376 0 .382405-.12402.15503-.12402.234267-.39963zm.05512-.97841q-.01033-.4203-.217041-.63734-.206705-.22049-.502983-.22049-.316949 0-.523655.23083-.206706.23082-.203261.627z"/><path d="m40.192005 293.79904v-5.05051h.968071v5.05051z"/><path d="m42.14882 289.64426v-.89573h.968072v.89573zm0 4.15478v-3.65869h.968072v3.65869z"/><path d="m43.76457 292.75518.971516-.14814q.06201.2825.251492.43064.189481.14469.530545.14469.375516 0 .564996-.1378.127468-.0965.127468-.25839 0-.11024-.0689-.18259-.07235-.0689-.323839-.12746-1.171332-.25839-1.484836-.47198-.434082-.29628-.434082-.82338 0-.47542.375516-.79926.375515-.32384 1.164442-.32384.751031 0 1.116211.2446.36518.2446.502984.72347l-.91295.16881q-.05857-.2136-.223932-.32728-.161919-.11369-.465088-.11369-.382405 0-.54777.1068-.110243.0758-.110243.19637 0 .10335.09646.1757.130914.0965.902615.27216.775146.1757 1.08176.43064.303168.25838.303168.72002 0 .50298-.420301.86472-.420302.36173-1.24368.36173-.747586 0-1.185113-.30316-.434082-.30317-.56844-.82338z"/><path d="m49.710804 290.14035v.7717h-.661459v1.4745q0 .44787.01723.52366.02067.0723.08613.12058.0689.0482.165365.0482.134359 0 .389296-.093l.08268.75103q-.337619.14469-.764811.14469-.261828 0-.471978-.0861-.210151-.0896-.310059-.22738-.09646-.14125-.134359-.37896-.03101-.16881-.03101-.68213v-1.59508h-.444417v-.7717h.444417v-.72691l.971517-.565v1.29191z"/><text x="41.518276" y="292.57513"><tspan stroke-width=".264583" x="41.518276" y="299.56598"/></text></g><g transform="matrix(.28622767 0 0 .33960434 25.135129 241.452851)"><g stroke-width="1.098916"><path d="m-75.85139 111.76597c-1.280268 0-2.310952.93225-2.310952 2.09025v37.62449c0 1.158 1.030684 2.09025 2.310952 2.09025h32.353324c1.280267 0 2.310952-.93225 2.310952-2.09025v-27.17324l-12.710235-1.04513-1.155476-11.49637z" opacity=".2"/><path d="m-75.85139 110.72085c-1.280268 0-2.310952.93225-2.310952 2.09025v37.62449c0 1.15799 1.030684 2.09025 2.310952 2.09025h32.353324c1.280267 0 2.310952-.93226 2.310952-2.09025v-27.17325l-12.710235-1.04512-1.155476-11.49637z" fill="#74ffd5"/><path d="m-75.85139 110.72085c-1.280268 0-2.310952.93225-2.310952 2.09025v1.04512c0-1.158 1.030684-2.09025 2.310952-2.09025h20.798565l12.710235 11.49637h1.155476l-13.865711-12.54149z" fill="#fff" opacity=".1"/><path d="m-55.052825 111.76597v10.45125c0 1.15444 1.034648 2.09025 2.310952 2.09025h11.554759z" opacity=".2"/><path d="m-55.052825 110.72085v10.45124c0 1.15445 1.034648 2.09025 2.310952 2.09025h11.554759z" fill="#54d0d5"/></g><g transform="matrix(.91359023 0 0 .8263398 -81.84781 118.536825)"><path d="m16 18h13c1 0 1 1 1 1v12c0 1-1 1-1 1h-12.997s-1 0-1-1v-12s0-1 1-1zm19.997 1.5v11.5l-6-6z" opacity=".2"/><path d="m16 17h13c1 0 1 1 1 1v12c0 1-1 1-1 1h-12.997s-1 0-1-1v-12s0-1 1-1zm19.997 1.5v11.5l-6-6z"/></g></g></g></svg>