<svg height="256" viewBox="0 0 2560 256" width="2560" xmlns="http://www.w3.org/2000/svg"><g fill="#fc0"><path d="m128 192.624 69.216 41.776-18.368-78.736 61.152-52.976-80.528-6.944-31.472-74.144-31.472 74.144-80.528 6.944 61.04 52.976-18.256 78.736z"/><path d="m384 192.624 69.216 41.776-18.368-78.736 61.152-52.976-80.528-6.944-31.472-74.144-31.472 74.144-80.528 6.944 61.04 52.976-18.256 78.736z"/><path d="m640 192.624 69.216 41.776-18.368-78.736 61.152-52.976-80.528-6.944-31.472-74.144-31.472 74.144-80.528 6.944 61.04 52.976-18.256 78.736z"/><path d="m896 192.624 69.216 41.776-18.368-78.736 61.152-52.976-80.528-6.944-31.472-74.144-31.472 74.144-80.528 6.944 61.04 52.976-18.256 78.736z"/><path d="m1152 192.624 69.216 41.776-18.368-78.736 61.152-52.976-80.528-6.944-31.472-74.144-31.472 74.144-80.528 6.944 61.04 52.976-18.256 78.736z"/><path d="m1408 192.624 69.216 41.776-18.368-78.736 61.152-52.976-80.528-6.944-31.472-74.144-31.472 74.144-80.528 6.944 61.04 52.976-18.256 78.736z"/><path d="m1664 192.624 69.216 41.776-18.368-78.736 61.152-52.976-80.528-6.944-31.472-74.144-31.472 74.144-80.528 6.944 61.04 52.976-18.256 78.736z"/><path d="m2176 192.624 69.216 41.776-18.368-78.736 61.152-52.976-80.528-6.944-31.472-74.144-31.472 74.144-80.528 6.944 61.04 52.976-18.256 78.736z"/><path d="m2432 192.624 69.216 41.776-18.368-78.736 61.152-52.976-80.528-6.944-31.472-74.144-31.472 74.144-80.528 6.944 61.04 52.976-18.256 78.736z"/><path d="m1920 192.624 69.216 41.776-18.368-78.736 61.152-52.976-80.528-6.944-31.472-74.144-31.472 74.144-80.528 6.944 61.04 52.976-18.256 78.736z"/></g></svg>