<svg height="40mm" viewBox="0 0 80 40" width="80mm" xmlns="http://www.w3.org/2000/svg" xmlns:xlink="http://www.w3.org/1999/xlink"><linearGradient id="a" gradientUnits="userSpaceOnUse" x1="40.502346" x2="39.13393" y1="11.002418" y2="103.84452"><stop offset="0" stop-color="#a3a3a3"/><stop offset="1" stop-color="#808080" stop-opacity="0"/></linearGradient><rect fill="url(#a)" height="37.999996" rx="3.388466" ry="2.937325" width="78" x="1.133929" y="1.05505"/><text fill="#fff" stroke-width=".264583" transform="scale(1.0391933 .96228488)" x="27.990953" y="34.304668"><tspan fill="#fff" stroke-width=".264583" x="27.990953" y="102.53712"/></text><g fill="#fff" stroke-width=".264583"><path d="m20.682758 20.283862q0-2.778125.830957-4.663281.620117-1.389063 1.686718-2.492871 1.079004-1.103809 2.356446-1.63711 1.699121-.719335 3.91914-.719335 4.018359 0 6.424414 2.492871 2.418457 2.492871 2.418457 6.93291 0 4.402832-2.393652 6.895703-2.393653 2.480468-6.399609 2.480468-4.055567 0-6.449219-2.468066-2.393652-2.480469-2.393652-6.821289zm3.782714-.124023q0 3.088183 1.42627 4.688085 1.426269 1.5875 3.621484 1.5875 2.195215 0 3.59668-1.575097 1.413867-1.5875 1.413867-4.750098 0-3.12539-1.37666-4.663281-1.364258-1.537891-3.633887-1.537891-2.269629 0-3.658691 1.562696-1.389063 1.550293-1.389063 4.688086z" fill="#fff" stroke-width=".264583"/><path d="m41.221039 29.263159v-18.181836h3.671094v8.073926l7.416601-8.073926h4.936133l-6.846094 7.081738 7.218164 11.100098h-4.750097l-4.998145-8.532813-2.976562 3.038575v5.494238z" fill="#fff" stroke-width=".264583"/></g></svg>